<svg width="1349" height="408" viewBox="0 0 1349 408" fill="none" xmlns="http://www.w3.org/2000/svg">
<path d="M252.889 202.2L391.489 385.2C395.889 390.8 397.289 396 395.689 400.8C394.089 405.6 389.889 408 383.089 408H318.889C308.089 408 299.689 403.8 293.689 395.4L201.289 271.8L111.889 393C104.289 403 95.2891 408 84.8891 408H21.2891C7.28906 408 0.289066 401 0.289066 387V21C0.289066 6.99999 7.28906 -4.29153e-06 21.2891 -4.29153e-06H71.6891C85.6891 -4.29153e-06 92.6891 6.99999 92.6891 21V236.4C92.6891 247.6 90.4891 256.4 86.0891 262.8L70.4891 285.6C69.2891 287.2 68.8891 288.8 69.2891 290.4C70.0891 292 71.6891 292.8 74.0891 292.8H83.0891C86.6891 292.8 89.2891 291.6 90.8891 289.2L290.689 12.6C296.689 4.19999 305.089 -4.29153e-06 315.889 -4.29153e-06H377.089C383.889 -4.29153e-06 388.089 2.39999 389.689 7.19997C391.289 12 389.889 17.2 385.489 22.8L252.889 202.2ZM738.289 16.2L880.489 383.4C883.289 390.6 883.089 396.6 879.889 401.4C876.689 405.8 871.289 408 863.689 408H812.689C800.289 408 792.089 402.6 788.089 391.8L768.889 340.8H545.689L526.489 391.8C522.489 402.6 514.289 408 501.889 408H450.889C443.289 408 437.889 405.8 434.689 401.4C431.489 396.6 431.289 390.6 434.089 383.4L576.289 16.2C580.289 5.39999 588.289 -4.29153e-06 600.289 -4.29153e-06H714.289C726.289 -4.29153e-06 734.289 5.39999 738.289 16.2ZM634.489 260.4H738.289L672.889 87H641.689L561.889 297.6C560.689 303.2 562.689 306 567.889 306H572.689C577.489 306 581.089 304.2 583.489 300.6L599.689 279.6C609.689 266.8 621.289 260.4 634.489 260.4ZM1292.88 194.4L1340.28 270.6C1345.88 279.8 1345.88 289 1340.28 298.2L1281.48 393.6C1275.48 403.2 1267.28 408 1256.88 408H1003.08C995.877 408 987.477 402.8 977.877 392.4L952.677 364.8C945.877 357.6 942.477 349 942.477 339V69C942.477 59 945.877 50.4 952.677 43.2L977.877 15.6C987.477 5.19999 995.877 -4.29153e-06 1003.08 -4.29153e-06H1247.88C1258.28 -4.29153e-06 1266.48 4.79999 1272.48 14.4L1331.28 106.8C1336.88 116 1336.88 125.2 1331.28 134.4L1292.88 194.4ZM1214.88 84.6H1034.88V198C1034.88 202 1036.88 204 1040.88 204H1049.28C1052.88 204 1055.48 202.8 1057.08 200.4L1076.28 176.4C1083.48 167.2 1091.88 162.6 1101.48 162.6H1214.88L1238.88 123.6L1214.88 84.6ZM1034.88 323.4H1222.68L1246.68 281.4L1222.68 239.4H1040.88C1036.88 239.4 1034.88 241.4 1034.88 245.4V323.4Z" fill="white"/>
</svg>
