<svg width="187" height="143" viewBox="0 0 187 143" fill="none" xmlns="http://www.w3.org/2000/svg">
<path d="M41.3477 99.3008L23.8672 132.992C23.2812 134.099 22.7279 135.141 22.207 136.117C21.6862 137.029 21.0677 137.875 20.3516 138.656C19.7005 139.372 18.9193 139.958 18.0078 140.414C17.0964 140.805 15.9896 141 14.6875 141H3.45703C2.48047 141 1.66667 140.772 1.01562 140.316C0.429688 139.796 0.136719 139.047 0.136719 138.07C0.136719 136.898 0.657552 135.401 1.69922 133.578L32.168 79.0859L1.89453 12.1914C1.11328 10.4336 0.722656 8.87109 0.722656 7.50391C0.722656 5.22526 1.4388 3.53255 2.87109 2.42578C4.36849 1.31901 5.89844 0.765625 7.46094 0.765625H62.9297C64.5573 0.765625 65.9245 0.99349 67.0312 1.44922C68.2031 1.83984 69.1471 2.32812 69.8633 2.91406C70.6445 3.5 71.2305 4.15104 71.6211 4.86719C72.0768 5.51823 72.4349 6.10417 72.6953 6.625L84.8047 33.3828L97.5 8.77344C98.0859 7.73177 98.6393 6.72266 99.1602 5.74609C99.681 4.76953 100.267 3.92318 100.918 3.20703C101.634 2.42578 102.448 1.83984 103.359 1.44922C104.271 0.99349 105.378 0.765625 106.68 0.765625H117.91C118.952 0.765625 119.766 1.02604 120.352 1.54688C121.003 2.0026 121.328 2.71875 121.328 3.69531C121.328 4.80208 120.775 6.29948 119.668 8.1875L94.082 53.9883L128.457 129.574C129.238 131.332 129.629 132.895 129.629 134.262C129.629 135.368 129.401 136.345 128.945 137.191C128.555 138.038 128.034 138.754 127.383 139.34C126.732 139.861 126.016 140.284 125.234 140.609C124.453 140.87 123.672 141 122.891 141H67.5195C65.8268 141 64.4271 140.805 63.3203 140.414C62.2135 139.958 61.2695 139.438 60.4883 138.852C59.7721 138.266 59.1862 137.647 58.7305 136.996C58.2747 136.345 57.9167 135.759 57.6562 135.238L41.3477 99.3008ZM66.25 12.1914C65.599 10.694 64.8828 9.78255 64.1016 9.45703C63.3203 9.13151 62.5065 8.96875 61.6602 8.96875H56.875L113.125 132.797H116.641C117.747 132.797 118.691 132.536 119.473 132.016C120.254 131.495 120.286 130.453 119.57 128.891L66.25 12.1914ZM141.641 120.395C141.641 117.27 142.227 114.34 143.398 111.605C144.635 108.871 146.263 106.495 148.281 104.477C150.365 102.393 152.773 100.766 155.508 99.5938C158.242 98.4219 161.172 97.8359 164.297 97.8359C167.422 97.8359 170.352 98.4219 173.086 99.5938C175.82 100.766 178.197 102.393 180.215 104.477C182.298 106.495 183.926 108.871 185.098 111.605C186.27 114.34 186.855 117.27 186.855 120.395C186.855 123.52 186.27 126.449 185.098 129.184C183.926 131.918 182.298 134.327 180.215 136.41C178.197 138.428 175.82 140.023 173.086 141.195C170.352 142.367 167.422 142.953 164.297 142.953C161.172 142.953 158.242 142.367 155.508 141.195C152.773 140.023 150.365 138.428 148.281 136.41C146.263 134.327 144.635 131.918 143.398 129.184C142.227 126.449 141.641 123.52 141.641 120.395ZM165.957 106.137C167.52 108.09 168.757 110.271 169.668 112.68C170.579 115.089 171.035 117.66 171.035 120.395C171.035 123.064 170.579 125.635 169.668 128.109C168.757 130.518 167.52 132.699 165.957 134.652C167.715 134.457 169.375 133.969 170.938 133.188C172.5 132.341 173.835 131.299 174.941 130.062C176.048 128.76 176.927 127.296 177.578 125.668C178.229 123.975 178.555 122.217 178.555 120.395C178.555 118.572 178.229 116.846 177.578 115.219C176.927 113.526 176.048 112.061 174.941 110.824C173.835 109.522 172.5 108.48 170.938 107.699C169.375 106.853 167.715 106.332 165.957 106.137Z" fill="white"/>
</svg>
