<svg width="490" height="143" viewBox="0 0 490 143" fill="none" xmlns="http://www.w3.org/2000/svg">
<path d="M41.4805 99.3008L24 132.992C23.4141 134.099 22.8607 135.141 22.3398 136.117C21.819 137.029 21.2005 137.875 20.4844 138.656C19.8333 139.372 19.0521 139.958 18.1406 140.414C17.2292 140.805 16.1224 141 14.8203 141H3.58984C2.61328 141 1.79948 140.772 1.14844 140.316C0.5625 139.796 0.269531 139.047 0.269531 138.07C0.269531 136.898 0.790365 135.401 1.83203 133.578L32.3008 79.0859L2.02734 12.1914C1.24609 10.4336 0.855469 8.87109 0.855469 7.50391C0.855469 5.22526 1.57161 3.53255 3.00391 2.42578C4.5013 1.31901 6.03125 0.765625 7.59375 0.765625H63.0625C64.6901 0.765625 66.0573 0.99349 67.1641 1.44922C68.3359 1.83984 69.2799 2.32812 69.9961 2.91406C70.7773 3.5 71.3633 4.15104 71.7539 4.86719C72.2096 5.51823 72.5677 6.10417 72.8281 6.625L84.9375 33.3828L97.6328 8.77344C98.2188 7.73177 98.7721 6.72266 99.293 5.74609C99.8138 4.76953 100.4 3.92318 101.051 3.20703C101.767 2.42578 102.581 1.83984 103.492 1.44922C104.404 0.99349 105.51 0.765625 106.812 0.765625H118.043C119.085 0.765625 119.898 1.02604 120.484 1.54688C121.135 2.0026 121.461 2.71875 121.461 3.69531C121.461 4.80208 120.908 6.29948 119.801 8.1875L94.2148 53.9883L128.59 129.574C129.371 131.332 129.762 132.895 129.762 134.262C129.762 135.368 129.534 136.345 129.078 137.191C128.688 138.038 128.167 138.754 127.516 139.34C126.865 139.861 126.148 140.284 125.367 140.609C124.586 140.87 123.805 141 123.023 141H67.6523C65.9596 141 64.5599 140.805 63.4531 140.414C62.3464 139.958 61.4023 139.438 60.6211 138.852C59.9049 138.266 59.319 137.647 58.8633 136.996C58.4076 136.345 58.0495 135.759 57.7891 135.238L41.4805 99.3008ZM66.3828 12.1914C65.7318 10.694 65.0156 9.78255 64.2344 9.45703C63.4531 9.13151 62.6393 8.96875 61.793 8.96875H57.0078L113.258 132.797H116.773C117.88 132.797 118.824 132.536 119.605 132.016C120.387 131.495 120.419 130.453 119.703 128.891L66.3828 12.1914ZM213.648 49.7891V128.988C219.964 128.077 225.758 127.263 231.031 126.547C233.245 126.221 235.458 125.928 237.672 125.668C239.951 125.342 242.034 125.049 243.922 124.789C245.81 124.529 247.438 124.333 248.805 124.203C250.172 124.073 251.116 124.008 251.637 124.008C252.743 124.008 253.688 124.236 254.469 124.691C255.25 125.082 255.641 125.928 255.641 127.23V136.215C255.641 137.387 255.348 138.493 254.762 139.535C254.176 140.512 252.776 141 250.562 141H155.641C152.581 141 150.074 140.707 148.121 140.121C146.233 139.535 144.736 138.689 143.629 137.582C142.522 136.475 141.773 135.076 141.383 133.383C140.992 131.69 140.797 129.704 140.797 127.426V17.7578C140.797 14.0469 141.22 11.0846 142.066 8.87109C142.913 6.59245 144.117 4.86719 145.68 3.69531C147.242 2.45833 149.098 1.67708 151.246 1.35156C153.46 0.960938 155.901 0.765625 158.57 0.765625H246.852C249.065 0.765625 250.465 1.28646 251.051 2.32812C251.702 3.30469 252.027 4.41146 252.027 5.64844V12.582C252.027 13.8841 251.669 14.763 250.953 15.2188C250.302 15.6094 249.423 15.8047 248.316 15.8047C247.665 15.8047 246.656 15.7396 245.289 15.6094C243.987 15.4792 242.457 15.3164 240.699 15.1211C238.941 14.8607 237.053 14.6003 235.035 14.3398C233.017 14.0794 230.999 13.7865 228.98 13.4609C224.293 12.7448 219.182 11.931 213.648 11.0195V35.8242H249.977C251.344 35.8242 252.027 36.5078 252.027 37.875V47.6406C252.027 49.0729 251.344 49.7891 249.977 49.7891H213.648ZM205.348 9.65234L197.73 8.57812V131.137L205.348 130.16V9.65234ZM352.711 79.1836L329.762 121.469C328.785 123.292 327.613 124.822 326.246 126.059C324.879 127.23 322.991 127.816 320.582 127.816C318.368 127.816 316.513 127.198 315.016 125.961C313.583 124.724 312.379 123.259 311.402 121.566L287.184 79.9648C287.574 88.7539 287.932 96.8594 288.258 104.281C288.388 107.471 288.518 110.661 288.648 113.852C288.779 117.042 288.909 120.004 289.039 122.738C289.169 125.473 289.267 127.914 289.332 130.062C289.462 132.146 289.56 133.676 289.625 134.652C289.69 135.629 289.658 136.508 289.527 137.289C289.462 138.07 289.234 138.754 288.844 139.34C288.453 139.861 287.9 140.284 287.184 140.609C286.467 140.87 285.491 141 284.254 141H273.512C272.34 141 271.233 140.642 270.191 139.926C269.215 139.145 268.727 137.647 268.727 135.434V11.2148C268.727 9.97786 268.889 8.74089 269.215 7.50391C269.605 6.26693 270.224 5.16016 271.07 4.18359C271.982 3.14193 273.154 2.32812 274.586 1.74219C276.018 1.09115 277.776 0.765625 279.859 0.765625H311.305C313.844 0.765625 316.025 1.22135 317.848 2.13281C319.671 2.97917 321.233 4.41146 322.535 6.42969L348.805 48.1289L366.383 14.4375C367.424 12.4193 368.434 10.5964 369.41 8.96875C370.387 7.27604 371.526 5.84375 372.828 4.67188C374.195 3.4349 375.855 2.49089 377.809 1.83984C379.827 1.1237 382.398 0.765625 385.523 0.765625H411.5C413.974 0.765625 416.09 1.09115 417.848 1.74219C419.671 2.39323 421.135 3.27214 422.242 4.37891C423.414 5.48568 424.26 6.78776 424.781 8.28516C425.302 9.78255 425.562 11.4102 425.562 13.168V127.426C425.562 129.444 425.4 131.299 425.074 132.992C424.749 134.62 424.065 136.052 423.023 137.289C422.047 138.461 420.615 139.372 418.727 140.023C416.904 140.674 414.495 141 411.5 141H366.383C363.714 141 361.5 140.707 359.742 140.121C357.984 139.535 356.585 138.689 355.543 137.582C354.501 136.475 353.753 135.076 353.297 133.383C352.906 131.69 352.711 129.704 352.711 127.426V79.1836ZM315.309 11.7031C314.527 10.401 313.648 9.61979 312.672 9.35938C311.76 9.09896 310.784 8.96875 309.742 8.96875H304.859L340.016 64.8281L344.02 57.3086L315.309 11.7031ZM417.262 15.2188C417.262 13.7865 417.164 12.6471 416.969 11.8008C416.773 10.9544 416.383 10.3359 415.797 9.94531C415.211 9.48958 414.43 9.22917 413.453 9.16406C412.477 9.03385 411.207 8.96875 409.645 8.96875V132.797C411.207 132.797 412.477 132.764 413.453 132.699C414.43 132.569 415.211 132.309 415.797 131.918C416.383 131.462 416.773 130.844 416.969 130.062C417.164 129.216 417.262 128.044 417.262 126.547V15.2188ZM444.508 120.395C444.508 117.27 445.094 114.34 446.266 111.605C447.503 108.871 449.13 106.495 451.148 104.477C453.232 102.393 455.641 100.766 458.375 99.5938C461.109 98.4219 464.039 97.8359 467.164 97.8359C470.289 97.8359 473.219 98.4219 475.953 99.5938C478.688 100.766 481.064 102.393 483.082 104.477C485.165 106.495 486.793 108.871 487.965 111.605C489.137 114.34 489.723 117.27 489.723 120.395C489.723 123.52 489.137 126.449 487.965 129.184C486.793 131.918 485.165 134.327 483.082 136.41C481.064 138.428 478.688 140.023 475.953 141.195C473.219 142.367 470.289 142.953 467.164 142.953C464.039 142.953 461.109 142.367 458.375 141.195C455.641 140.023 453.232 138.428 451.148 136.41C449.13 134.327 447.503 131.918 446.266 129.184C445.094 126.449 444.508 123.52 444.508 120.395ZM468.824 106.137C470.387 108.09 471.624 110.271 472.535 112.68C473.447 115.089 473.902 117.66 473.902 120.395C473.902 123.064 473.447 125.635 472.535 128.109C471.624 130.518 470.387 132.699 468.824 134.652C470.582 134.457 472.242 133.969 473.805 133.188C475.367 132.341 476.702 131.299 477.809 130.062C478.915 128.76 479.794 127.296 480.445 125.668C481.096 123.975 481.422 122.217 481.422 120.395C481.422 118.572 481.096 116.846 480.445 115.219C479.794 113.526 478.915 112.061 477.809 110.824C476.702 109.522 475.367 108.48 473.805 107.699C472.242 106.853 470.582 106.332 468.824 106.137Z" fill="#222222"/>
</svg>
